<svg width="160" height="34" viewBox="0 0 160 34" fill="none" xmlns="http://www.w3.org/2000/svg">
<path d="M7.71527 24.4012C5.3438 24.9656 2.99991 25.53 0.683591 26.0943C-1.51093 18.0384 2.39555 9.98011 1.09722 1.92185C3.46409 1.2804 5.79573 0.64049 8.09213 0.00212034C10.3073 8.13208 6.30663 16.2667 7.71527 24.4012Z" fill="#F6F6F6"/>
<path d="M27.466 24.4014C25.096 24.9658 22.7529 25.5302 20.4366 26.0945C18.2398 18.0386 22.1463 9.98031 20.8502 1.92205C23.2094 1.28059 25.538 0.639912 27.8359 0C30.058 8.13227 26.0573 16.2669 27.466 24.4014Z" fill="#F6F6F6"/>
<path d="M17.9663 32.3046L10.5601 34V9.82754L17.9663 7.90781V32.3046Z" fill="#F6F6F6"/>
<path d="M48.2264 22.9973V17.097H41.1028V22.9973H38.3683V8.40272H41.1028V14.5528H48.2264V8.40272H50.9403V22.9973H48.2264Z" fill="#F6F6F6"/>
<path d="M61.4214 12.6983H63.8457V22.977H61.4627L61.3387 21.4759C60.7573 22.6856 59.1625 23.2684 58.025 23.2892C54.9987 23.3101 52.7628 21.4389 52.7628 17.8284C52.7628 14.2827 55.1021 12.4277 58.0871 12.4485C59.4544 12.4485 60.7573 13.0938 61.3387 14.1162L61.4214 12.6983ZM55.2905 17.8284C55.2905 19.7875 56.6371 20.9555 58.3146 20.9555C62.2923 20.9555 62.2923 14.7106 58.3146 14.7106C56.6371 14.7198 55.2905 15.867 55.2905 17.8284Z" fill="#F6F6F6"/>
<path d="M74.9679 21.6629C74.4601 22.1939 73.8476 22.6122 73.1697 22.891C72.4918 23.1698 71.7635 23.303 71.0316 23.2819C68.0695 23.2819 65.6039 21.4894 65.6039 17.8419C65.6039 14.1944 68.0695 12.3996 71.0316 12.3996C71.7164 12.3775 72.3982 12.5017 73.0319 12.764C73.6656 13.0263 74.237 13.4208 74.7083 13.9215L73.1135 15.6099C72.5512 15.0954 71.8213 14.8058 71.0614 14.7958C69.3633 14.7958 68.1201 16.0471 68.1201 17.8419C68.1201 19.801 69.446 20.8487 71.0201 20.8487C71.4311 20.8644 71.841 20.7967 72.2255 20.6497C72.61 20.5027 72.9613 20.2793 73.2583 19.9929L74.9679 21.6629Z" fill="#F6F6F6"/>
<path d="M78.5505 8.40301V16.8267L81.9974 12.6981H85.0214V12.8369L80.8507 17.5345L85.5936 22.7825V22.9699H82.5489L78.5505 18.3209V22.9699H76.0227V8.39839L78.5505 8.40301Z" fill="#F6F6F6"/>
<path d="M93.5585 22.9768V17.4628C93.5585 16.1074 92.8531 14.8769 91.4651 14.8769C90.0771 14.8769 89.2912 16.1074 89.2912 17.4628V22.9676H86.7635V12.6773H89.1051L89.2912 13.9286C89.829 12.8855 91.0101 12.5108 91.9844 12.5108C93.2046 12.5108 94.4271 13.0104 95.0085 14.4282C95.9277 12.9687 97.0996 12.5524 98.4255 12.5524C101.326 12.5524 102.755 14.3449 102.755 17.4304V22.9814H100.223V17.4304C100.223 16.075 99.6595 14.9185 98.2922 14.9185C96.925 14.9185 96.0862 16.1166 96.0862 17.4628V22.9676L93.5585 22.9768Z" fill="#F6F6F6"/>
<path d="M113.413 12.6983H115.849V22.977H113.454L113.33 21.4759C112.751 22.6856 111.156 23.2684 110.017 23.2892C106.993 23.3101 104.754 21.4389 104.754 17.8284C104.754 14.2827 107.096 12.4277 110.079 12.4485C111.458 12.4485 112.751 13.0938 113.33 14.1162L113.413 12.6983ZM107.282 17.8284C107.282 19.7875 108.629 20.9555 110.306 20.9555C114.284 20.9555 114.284 14.7106 110.306 14.7106C108.629 14.7198 107.282 15.867 107.282 17.8284Z" fill="#F6F6F6"/>
<path d="M124.765 22.9768V17.4628C124.765 16.1074 124.062 14.8769 122.674 14.8769C121.286 14.8769 120.498 16.1074 120.498 17.4628V22.9676H117.97V12.6773H120.312L120.498 13.9286C121.036 12.8855 122.217 12.5108 123.191 12.5108C124.414 12.5108 125.636 13.0104 126.215 14.4282C127.134 12.9687 128.309 12.5524 129.635 12.5524C132.535 12.5524 133.964 14.3449 133.964 17.4304V22.9814H131.436V17.4304C131.436 16.075 130.875 14.9278 129.51 14.9278C128.145 14.9278 127.293 16.1166 127.293 17.472V22.9768H124.765Z" fill="#F6F6F6"/>
<path d="M139.059 8.40272V14.0949C139.658 13.0309 141.336 12.448 142.414 12.448C145.401 12.448 147.614 14.2822 147.614 17.8279C147.614 21.2048 145.355 23.2055 142.352 23.2055C141.108 23.2055 139.845 22.7892 139.059 21.5587L138.893 22.9765H136.531V8.40504L139.059 8.40272ZM139.224 17.8279C139.209 18.2254 139.275 18.6217 139.418 18.9925C139.562 19.3633 139.778 19.7006 140.056 19.9838C140.333 20.267 140.666 20.4901 141.032 20.6392C141.398 20.7883 141.791 20.8604 142.186 20.8509C143.795 20.8509 145.086 19.6205 145.086 17.8279C145.086 15.9776 143.802 14.8211 142.186 14.8211C141.793 14.8148 141.403 14.8884 141.039 15.0376C140.675 15.1868 140.345 15.4084 140.069 15.6892C139.792 15.9701 139.575 16.3043 139.429 16.6718C139.284 17.0393 139.214 17.4326 139.224 17.8279Z" fill="#F6F6F6"/>
<path d="M157.578 12.6983H160V22.977H157.619L157.495 21.4759C156.914 22.6856 155.319 23.2684 154.179 23.2892C151.155 23.3101 148.917 21.4389 148.917 17.8284C148.917 14.2827 151.259 12.4277 154.241 12.4485C155.609 12.4485 156.914 13.0938 157.495 14.1162L157.578 12.6983ZM151.445 17.8284C151.445 19.7875 152.791 20.9555 154.469 20.9555C158.447 20.9555 158.447 14.7106 154.469 14.7106C152.791 14.7198 151.445 15.867 151.445 17.8284Z" fill="#F6F6F6"/>
</svg>
